Genre:Comedy | Sport
Language:English  http://www.imdb.com/title/tt1293842/
Source:DVD
Subtitles:Romana


Format : MPEG-4
Format profile : Base Media
Codec ID : isom
File size : 1.20 GiB
Duration : 1h 42mn
Overall bit rate : 1 668 Kbps
Movie name : The.Winning.Season.2009.DvDRip.H264.Feel-Free


Video
Format settings, CABAC : Yes
Format settings, ReFrames : 4 frames
Codec ID : avc1
Codec ID/Info : Advanced Video Coding
Duration : 1h 42mn
Bit rate mode : Variable
Bit rate : 1 500 Kbps
Width : 720 pixels
Height : 384 pixels
Display aspect ratio : 1.875
Frame rate mode : Constant
Frame rate : 23.976 fps
Color space : YUV
Chroma subsampling : 4:2:0
Bit depth : 8 bits
Scan type : Progressive
Bits/(Pixel*Frame) : 0.226
Stream size : 1.08 GiB (90%)

Audio
ID : 2
Format : AAC
Format/Info : Advanced Audio Codec
Format version : Version 4
Format profile : LC
Codec ID : 40
Duration : 1h 42mn
Bit rate mode : Variable
Bit rate : 165 Kbps
Channel(s) : 2 channels
Channel positions : Front: L R
Sampling rate : 48.0 KHz
Stream size : 122 MiB (10%)



Plot:
A comedy centered on a has-been coach who is given a shot at redemption when he's asked to run his local high school's girls basketball team.

TRAILER:  http://www.imdb.com/video/imdb/vi4091872793/
 
http://shareimage.org/images/59phf9xo4vfd7cqm5k2z.png 
http://shareimage.org/images/nu7010y7ru9bgtqohq3f.png